<mxfile host="app.diagrams.net" agent="Mozilla/5.0 (Windows NT 10.0; Win64; x64) AppleWebKit/537.36 (KHTML, like Gecko) Chrome/128.0.0.0 Safari/537.36 OPR/114.0.0.0" version="25.0.3">
  <diagram id="C5RBs43oDa-KdzZeNtuy" name="Page-1">
    <mxGraphModel dx="837" dy="487" grid="1" gridSize="10" guides="1" tooltips="1" connect="1" arrows="1" fold="1" page="1" pageScale="1" pageWidth="827" pageHeight="1169" math="0" shadow="0">
      <root>
        <mxCell id="WIyWlLk6GJQsqaUBKTNV-0" />
        <mxCell id="WIyWlLk6GJQsqaUBKTNV-1" parent="WIyWlLk6GJQsqaUBKTNV-0" />
        <mxCell id="aAMVkr43ykBePU5nD_kj-4" style="edgeStyle=orthogonalEdgeStyle;rounded=0;orthogonalLoop=1;jettySize=auto;html=1;" edge="1" parent="WIyWlLk6GJQsqaUBKTNV-1" source="aAMVkr43ykBePU5nD_kj-3" target="aAMVkr43ykBePU5nD_kj-5">
          <mxGeometry relative="1" as="geometry">
            <mxPoint x="250" y="280" as="targetPoint" />
          </mxGeometry>
        </mxCell>
        <mxCell id="aAMVkr43ykBePU5nD_kj-3" value="Input N" style="shape=parallelogram;html=1;strokeWidth=2;perimeter=parallelogramPerimeter;whiteSpace=wrap;rounded=1;arcSize=12;size=0.23;" vertex="1" parent="WIyWlLk6GJQsqaUBKTNV-1">
          <mxGeometry x="200" y="170" width="100" height="60" as="geometry" />
        </mxCell>
        <mxCell id="aAMVkr43ykBePU5nD_kj-6" style="edgeStyle=orthogonalEdgeStyle;rounded=0;orthogonalLoop=1;jettySize=auto;html=1;" edge="1" parent="WIyWlLk6GJQsqaUBKTNV-1" source="aAMVkr43ykBePU5nD_kj-5" target="aAMVkr43ykBePU5nD_kj-7">
          <mxGeometry relative="1" as="geometry">
            <mxPoint x="250" y="420" as="targetPoint" />
          </mxGeometry>
        </mxCell>
        <mxCell id="aAMVkr43ykBePU5nD_kj-5" value="int count =0, num=2" style="rounded=1;whiteSpace=wrap;html=1;absoluteArcSize=1;arcSize=14;strokeWidth=2;" vertex="1" parent="WIyWlLk6GJQsqaUBKTNV-1">
          <mxGeometry x="200" y="270" width="100" height="100" as="geometry" />
        </mxCell>
        <mxCell id="aAMVkr43ykBePU5nD_kj-8" style="edgeStyle=orthogonalEdgeStyle;rounded=0;orthogonalLoop=1;jettySize=auto;html=1;" edge="1" parent="WIyWlLk6GJQsqaUBKTNV-1" source="aAMVkr43ykBePU5nD_kj-7" target="aAMVkr43ykBePU5nD_kj-9">
          <mxGeometry relative="1" as="geometry">
            <mxPoint x="250" y="560" as="targetPoint" />
          </mxGeometry>
        </mxCell>
        <mxCell id="aAMVkr43ykBePU5nD_kj-13" style="edgeStyle=orthogonalEdgeStyle;rounded=0;orthogonalLoop=1;jettySize=auto;html=1;entryX=0;entryY=0.5;entryDx=0;entryDy=0;entryPerimeter=0;" edge="1" parent="WIyWlLk6GJQsqaUBKTNV-1" source="aAMVkr43ykBePU5nD_kj-7" target="aAMVkr43ykBePU5nD_kj-44">
          <mxGeometry relative="1" as="geometry">
            <mxPoint x="380" y="460" as="targetPoint" />
          </mxGeometry>
        </mxCell>
        <mxCell id="aAMVkr43ykBePU5nD_kj-7" value="count &amp;lt;N" style="strokeWidth=2;html=1;shape=mxgraph.flowchart.decision;whiteSpace=wrap;" vertex="1" parent="WIyWlLk6GJQsqaUBKTNV-1">
          <mxGeometry x="200" y="410" width="100" height="100" as="geometry" />
        </mxCell>
        <mxCell id="aAMVkr43ykBePU5nD_kj-10" style="edgeStyle=orthogonalEdgeStyle;rounded=0;orthogonalLoop=1;jettySize=auto;html=1;" edge="1" parent="WIyWlLk6GJQsqaUBKTNV-1" source="aAMVkr43ykBePU5nD_kj-9">
          <mxGeometry relative="1" as="geometry">
            <mxPoint x="370" y="600" as="targetPoint" />
          </mxGeometry>
        </mxCell>
        <mxCell id="aAMVkr43ykBePU5nD_kj-9" value="int check=1, i=2" style="rounded=1;whiteSpace=wrap;html=1;absoluteArcSize=1;arcSize=14;strokeWidth=2;" vertex="1" parent="WIyWlLk6GJQsqaUBKTNV-1">
          <mxGeometry x="200" y="550" width="100" height="100" as="geometry" />
        </mxCell>
        <mxCell id="aAMVkr43ykBePU5nD_kj-17" style="edgeStyle=orthogonalEdgeStyle;rounded=0;orthogonalLoop=1;jettySize=auto;html=1;" edge="1" parent="WIyWlLk6GJQsqaUBKTNV-1" source="aAMVkr43ykBePU5nD_kj-12" target="aAMVkr43ykBePU5nD_kj-18">
          <mxGeometry relative="1" as="geometry">
            <mxPoint x="420" y="720" as="targetPoint" />
          </mxGeometry>
        </mxCell>
        <mxCell id="aAMVkr43ykBePU5nD_kj-29" style="edgeStyle=orthogonalEdgeStyle;rounded=0;orthogonalLoop=1;jettySize=auto;html=1;entryX=0.5;entryY=0;entryDx=0;entryDy=0;entryPerimeter=0;" edge="1" parent="WIyWlLk6GJQsqaUBKTNV-1" source="aAMVkr43ykBePU5nD_kj-12" target="aAMVkr43ykBePU5nD_kj-30">
          <mxGeometry relative="1" as="geometry">
            <mxPoint x="640" y="690" as="targetPoint" />
          </mxGeometry>
        </mxCell>
        <mxCell id="aAMVkr43ykBePU5nD_kj-12" value="i &amp;lt;= sqrt(num)" style="strokeWidth=2;html=1;shape=mxgraph.flowchart.decision;whiteSpace=wrap;" vertex="1" parent="WIyWlLk6GJQsqaUBKTNV-1">
          <mxGeometry x="370" y="550" width="100" height="100" as="geometry" />
        </mxCell>
        <mxCell id="aAMVkr43ykBePU5nD_kj-14" value="True" style="text;html=1;align=center;verticalAlign=middle;resizable=0;points=[];autosize=1;strokeColor=none;fillColor=none;" vertex="1" parent="WIyWlLk6GJQsqaUBKTNV-1">
          <mxGeometry x="245" y="508" width="50" height="30" as="geometry" />
        </mxCell>
        <mxCell id="aAMVkr43ykBePU5nD_kj-15" value="False" style="text;html=1;align=center;verticalAlign=middle;resizable=0;points=[];autosize=1;strokeColor=none;fillColor=none;" vertex="1" parent="WIyWlLk6GJQsqaUBKTNV-1">
          <mxGeometry x="285" y="428" width="50" height="30" as="geometry" />
        </mxCell>
        <mxCell id="aAMVkr43ykBePU5nD_kj-19" style="edgeStyle=orthogonalEdgeStyle;rounded=0;orthogonalLoop=1;jettySize=auto;html=1;" edge="1" parent="WIyWlLk6GJQsqaUBKTNV-1" source="aAMVkr43ykBePU5nD_kj-18" target="aAMVkr43ykBePU5nD_kj-20">
          <mxGeometry relative="1" as="geometry">
            <mxPoint x="330" y="720" as="targetPoint" />
          </mxGeometry>
        </mxCell>
        <mxCell id="aAMVkr43ykBePU5nD_kj-18" value="num%i==0" style="strokeWidth=2;html=1;shape=mxgraph.flowchart.decision;whiteSpace=wrap;" vertex="1" parent="WIyWlLk6GJQsqaUBKTNV-1">
          <mxGeometry x="370" y="690" width="100" height="100" as="geometry" />
        </mxCell>
        <mxCell id="aAMVkr43ykBePU5nD_kj-20" value="check=0" style="rounded=1;whiteSpace=wrap;html=1;absoluteArcSize=1;arcSize=14;strokeWidth=2;" vertex="1" parent="WIyWlLk6GJQsqaUBKTNV-1">
          <mxGeometry x="200" y="690" width="100" height="100" as="geometry" />
        </mxCell>
        <mxCell id="aAMVkr43ykBePU5nD_kj-21" value="true" style="text;html=1;align=center;verticalAlign=middle;resizable=0;points=[];autosize=1;strokeColor=none;fillColor=none;" vertex="1" parent="WIyWlLk6GJQsqaUBKTNV-1">
          <mxGeometry x="374" y="650" width="40" height="30" as="geometry" />
        </mxCell>
        <mxCell id="aAMVkr43ykBePU5nD_kj-22" value="true" style="text;html=1;align=center;verticalAlign=middle;resizable=0;points=[];autosize=1;strokeColor=none;fillColor=none;" vertex="1" parent="WIyWlLk6GJQsqaUBKTNV-1">
          <mxGeometry x="320" y="708" width="40" height="30" as="geometry" />
        </mxCell>
        <mxCell id="aAMVkr43ykBePU5nD_kj-23" style="edgeStyle=orthogonalEdgeStyle;rounded=0;orthogonalLoop=1;jettySize=auto;html=1;entryX=1;entryY=0.5;entryDx=0;entryDy=0;entryPerimeter=0;" edge="1" parent="WIyWlLk6GJQsqaUBKTNV-1" source="aAMVkr43ykBePU5nD_kj-18" target="aAMVkr43ykBePU5nD_kj-12">
          <mxGeometry relative="1" as="geometry">
            <Array as="points">
              <mxPoint x="490" y="740" />
              <mxPoint x="490" y="600" />
            </Array>
          </mxGeometry>
        </mxCell>
        <mxCell id="aAMVkr43ykBePU5nD_kj-26" value="False" style="text;html=1;align=center;verticalAlign=middle;resizable=0;points=[];autosize=1;strokeColor=none;fillColor=none;" vertex="1" parent="WIyWlLk6GJQsqaUBKTNV-1">
          <mxGeometry x="485" y="648" width="50" height="30" as="geometry" />
        </mxCell>
        <mxCell id="aAMVkr43ykBePU5nD_kj-28" value="False" style="text;html=1;align=center;verticalAlign=middle;resizable=0;points=[];autosize=1;strokeColor=none;fillColor=none;" vertex="1" parent="WIyWlLk6GJQsqaUBKTNV-1">
          <mxGeometry x="505" y="568" width="50" height="30" as="geometry" />
        </mxCell>
        <mxCell id="aAMVkr43ykBePU5nD_kj-31" style="edgeStyle=orthogonalEdgeStyle;rounded=0;orthogonalLoop=1;jettySize=auto;html=1;" edge="1" parent="WIyWlLk6GJQsqaUBKTNV-1" source="aAMVkr43ykBePU5nD_kj-30" target="aAMVkr43ykBePU5nD_kj-32">
          <mxGeometry relative="1" as="geometry">
            <mxPoint x="640" y="780" as="targetPoint" />
          </mxGeometry>
        </mxCell>
        <mxCell id="aAMVkr43ykBePU5nD_kj-38" style="edgeStyle=orthogonalEdgeStyle;rounded=0;orthogonalLoop=1;jettySize=auto;html=1;entryX=1;entryY=0.5;entryDx=0;entryDy=0;" edge="1" parent="WIyWlLk6GJQsqaUBKTNV-1" source="aAMVkr43ykBePU5nD_kj-30" target="aAMVkr43ykBePU5nD_kj-37">
          <mxGeometry relative="1" as="geometry">
            <Array as="points">
              <mxPoint x="760" y="670" />
              <mxPoint x="760" y="1020" />
            </Array>
          </mxGeometry>
        </mxCell>
        <mxCell id="aAMVkr43ykBePU5nD_kj-30" value="check==1" style="strokeWidth=2;html=1;shape=mxgraph.flowchart.decision;whiteSpace=wrap;" vertex="1" parent="WIyWlLk6GJQsqaUBKTNV-1">
          <mxGeometry x="590" y="620" width="100" height="100" as="geometry" />
        </mxCell>
        <mxCell id="aAMVkr43ykBePU5nD_kj-34" style="edgeStyle=orthogonalEdgeStyle;rounded=0;orthogonalLoop=1;jettySize=auto;html=1;" edge="1" parent="WIyWlLk6GJQsqaUBKTNV-1" source="aAMVkr43ykBePU5nD_kj-32" target="aAMVkr43ykBePU5nD_kj-35">
          <mxGeometry relative="1" as="geometry">
            <mxPoint x="640" y="860" as="targetPoint" />
          </mxGeometry>
        </mxCell>
        <mxCell id="aAMVkr43ykBePU5nD_kj-32" value="print num" style="shape=parallelogram;html=1;strokeWidth=2;perimeter=parallelogramPerimeter;whiteSpace=wrap;rounded=1;arcSize=12;size=0.23;" vertex="1" parent="WIyWlLk6GJQsqaUBKTNV-1">
          <mxGeometry x="590" y="750" width="100" height="60" as="geometry" />
        </mxCell>
        <mxCell id="aAMVkr43ykBePU5nD_kj-33" value="True" style="text;html=1;align=center;verticalAlign=middle;resizable=0;points=[];autosize=1;strokeColor=none;fillColor=none;" vertex="1" parent="WIyWlLk6GJQsqaUBKTNV-1">
          <mxGeometry x="640" y="720" width="50" height="30" as="geometry" />
        </mxCell>
        <mxCell id="aAMVkr43ykBePU5nD_kj-36" style="edgeStyle=orthogonalEdgeStyle;rounded=0;orthogonalLoop=1;jettySize=auto;html=1;" edge="1" parent="WIyWlLk6GJQsqaUBKTNV-1" source="aAMVkr43ykBePU5nD_kj-35" target="aAMVkr43ykBePU5nD_kj-37">
          <mxGeometry relative="1" as="geometry">
            <mxPoint x="640" y="1020" as="targetPoint" />
          </mxGeometry>
        </mxCell>
        <mxCell id="aAMVkr43ykBePU5nD_kj-35" value="count=count+1" style="rounded=1;whiteSpace=wrap;html=1;absoluteArcSize=1;arcSize=14;strokeWidth=2;" vertex="1" parent="WIyWlLk6GJQsqaUBKTNV-1">
          <mxGeometry x="590" y="850" width="100" height="100" as="geometry" />
        </mxCell>
        <mxCell id="aAMVkr43ykBePU5nD_kj-37" value="num=num+1" style="rounded=1;whiteSpace=wrap;html=1;absoluteArcSize=1;arcSize=14;strokeWidth=2;" vertex="1" parent="WIyWlLk6GJQsqaUBKTNV-1">
          <mxGeometry x="590" y="970" width="100" height="100" as="geometry" />
        </mxCell>
        <mxCell id="aAMVkr43ykBePU5nD_kj-40" value="False" style="text;html=1;align=center;verticalAlign=middle;resizable=0;points=[];autosize=1;strokeColor=none;fillColor=none;" vertex="1" parent="WIyWlLk6GJQsqaUBKTNV-1">
          <mxGeometry x="770" y="788" width="50" height="30" as="geometry" />
        </mxCell>
        <mxCell id="aAMVkr43ykBePU5nD_kj-41" style="edgeStyle=orthogonalEdgeStyle;rounded=0;orthogonalLoop=1;jettySize=auto;html=1;entryX=0;entryY=0.5;entryDx=0;entryDy=0;entryPerimeter=0;" edge="1" parent="WIyWlLk6GJQsqaUBKTNV-1" source="aAMVkr43ykBePU5nD_kj-37" target="aAMVkr43ykBePU5nD_kj-7">
          <mxGeometry relative="1" as="geometry" />
        </mxCell>
        <mxCell id="aAMVkr43ykBePU5nD_kj-43" style="edgeStyle=orthogonalEdgeStyle;rounded=0;orthogonalLoop=1;jettySize=auto;html=1;entryX=0.5;entryY=0;entryDx=0;entryDy=0;" edge="1" parent="WIyWlLk6GJQsqaUBKTNV-1" source="aAMVkr43ykBePU5nD_kj-42" target="aAMVkr43ykBePU5nD_kj-3">
          <mxGeometry relative="1" as="geometry" />
        </mxCell>
        <mxCell id="aAMVkr43ykBePU5nD_kj-42" value="START" style="strokeWidth=2;html=1;shape=mxgraph.flowchart.start_1;whiteSpace=wrap;" vertex="1" parent="WIyWlLk6GJQsqaUBKTNV-1">
          <mxGeometry x="200" y="70" width="100" height="60" as="geometry" />
        </mxCell>
        <mxCell id="aAMVkr43ykBePU5nD_kj-44" value="END" style="strokeWidth=2;html=1;shape=mxgraph.flowchart.start_1;whiteSpace=wrap;" vertex="1" parent="WIyWlLk6GJQsqaUBKTNV-1">
          <mxGeometry x="390" y="430" width="100" height="60" as="geometry" />
        </mxCell>
      </root>
    </mxGraphModel>
  </diagram>
</mxfile>
